{"glyphs":{"0":{"ha":785,"x_min":60,"x_max":725,"o":"m 725 647 l 725 342 q 642 82 725 178 q 392 -19 553 -19 q 143 85 232 -19 q 60 346 60 183 l 60 642 q 144 901 60 801 q 392 1008 235 1008 q 642 907 554 1008 q 725 647 725 813 m 150 325 q 211 136 150 206 q 392 61 275 61 q 572 135 508 61 q 633 322 633 203 l 633 665 q 572 853 633 785 q 392 926 508 926 q 212 853 274 926 q 150 661 150 781 l 150 325 z "},"1":{"ha":782,"x_min":157,"x_max":642,"o":"m 201 908 l 201 988 l 451 988 l 451 79 l 642 79 l 642 0 l 157 0 l 157 79 l 360 79 l 360 908 l 201 908 z "},"2":{"ha":788,"x_min":92,"x_max":707,"o":"m 707 0 l 92 0 l 92 85 l 443 424 q 558 546 532 510 q 614 700 614 621 q 558 868 614 806 q 397 931 503 931 q 236 853 294 931 q 183 678 183 783 l 183 663 l 92 663 l 92 674 q 177 920 92 824 q 411 1017 263 1017 q 631 931 554 1017 q 707 700 707 844 q 553 406 707 550 l 208 83 l 707 83 l 707 0 z "},"3":{"ha":785,"x_min":75,"x_max":711,"o":"m 75 292 l 168 292 q 383 60 168 60 q 550 126 483 60 q 617 292 617 192 q 371 572 617 572 q 283 557 332 572 l 247 608 l 546 918 l 135 918 l 135 1000 l 651 1000 l 651 917 l 383 647 q 628 556 544 647 q 711 301 711 465 q 618 73 711 165 q 389 -19 525 -19 q 158 63 242 -19 q 75 292 75 144 z "},"4":{"ha":783,"x_min":76,"x_max":751,"o":"m 751 192 l 631 192 l 631 0 l 540 0 l 540 192 l 76 192 l 76 274 l 528 988 l 631 988 l 631 272 l 751 272 l 751 192 m 540 272 l 540 849 l 531 849 l 169 272 l 540 272 z "},"5":{"ha":785,"x_min":60,"x_max":729,"o":"m 60 296 l 151 296 q 224 131 151 199 q 393 64 296 64 q 575 146 508 64 q 638 340 638 222 q 399 593 638 593 q 178 486 250 593 l 107 513 l 194 1000 l 661 1000 l 661 918 l 274 918 l 221 633 l 228 629 q 401 681 313 681 q 643 588 557 681 q 729 338 729 494 q 636 85 729 188 q 390 -19 539 -19 q 157 71 254 -19 q 60 296 60 161 z "},"6":{"ha":785,"x_min":58,"x_max":726,"o":"m 422 988 l 538 988 l 306 632 l 313 625 q 418 644 401 644 q 643 547 556 644 q 726 315 726 454 q 631 76 726 171 q 390 -19 535 -19 q 155 73 251 -19 q 58 304 58 165 q 104 481 58 383 q 199 640 131 536 l 422 988 m 397 563 q 224 490 293 563 q 154 314 154 418 q 225 136 154 211 q 399 61 296 61 q 566 135 501 61 q 631 313 631 208 q 568 489 631 418 q 397 563 501 563 z "},"7":{"ha":785,"x_min":104,"x_max":682,"o":"m 288 0 l 190 0 l 589 911 l 104 911 l 104 1000 l 682 1000 l 682 908 l 288 0 z "},"8":{"ha":785,"x_min":78,"x_max":707,"o":"m 232 550 l 232 558 q 122 747 122 632 q 201 932 122 856 q 390 1008 281 1008 q 582 936 501 1008 q 663 754 663 864 q 551 558 663 636 l 551 550 q 707 286 707 478 q 618 62 707 144 q 386 -21 529 -21 q 167 66 256 -21 q 78 282 78 153 q 232 550 78 476 m 378 510 q 226 444 282 510 q 171 282 171 379 q 233 126 171 190 q 386 63 294 63 q 548 126 483 63 q 613 286 613 189 q 557 449 613 388 q 401 510 501 510 l 378 510 m 399 593 q 524 638 475 593 q 574 760 574 683 q 522 881 574 835 q 394 926 471 926 q 268 881 321 926 q 211 761 211 833 q 258 640 211 688 q 379 593 306 593 l 399 593 z "},"9":{"ha":785,"x_min":60,"x_max":724,"o":"m 363 0 l 254 0 l 492 363 l 485 368 q 367 344 429 344 q 145 440 231 344 q 60 674 60 536 q 154 914 60 819 q 393 1008 249 1008 q 628 916 533 1008 q 724 685 724 824 q 718 611 724 643 q 586 349 704 533 l 363 0 m 388 426 q 560 499 490 426 q 629 675 629 571 q 559 853 629 779 q 386 926 489 926 q 218 854 282 926 q 154 676 154 782 q 219 499 154 571 q 388 426 283 426 z "}," ":{"ha":361,"x_min":0,"x_max":0,"o":""},"!":{"ha":396,"x_min":153,"x_max":243,"o":"m 243 0 l 153 0 l 153 167 l 243 167 l 243 0 m 243 271 l 153 271 l 153 1000 l 243 1000 l 243 271 z "},"\"":{"ha":383,"x_min":68,"x_max":318,"o":"m 132 999 l 132 626 l 68 626 l 68 999 l 132 999 m 318 999 l 318 626 l 253 626 l 253 999 l 318 999 z "},"#":{"ha":1069,"x_min":101,"x_max":968,"o":"m 560 986 l 486 657 l 672 657 l 749 986 l 828 986 l 753 657 l 968 657 l 953 589 l 736 589 l 692 394 l 924 394 l 908 326 l 676 326 l 600 0 l 519 0 l 596 326 l 406 326 l 329 0 l 250 0 l 325 326 l 101 326 l 118 394 l 340 394 l 386 589 l 144 589 l 160 657 l 401 657 l 479 986 l 560 986 m 653 589 l 467 589 l 425 394 l 611 394 l 653 589 z "},"$":{"ha":782,"x_min":104,"x_max":679,"o":"m 104 286 l 190 286 q 389 79 190 79 q 533 128 478 79 q 589 265 589 176 q 469 438 589 385 q 249 521 360 479 q 129 722 129 583 q 190 892 129 821 q 347 976 250 964 l 347 1106 l 436 1106 l 436 976 q 657 733 646 954 l 568 733 q 521 856 568 810 q 397 901 474 901 q 266 855 315 901 q 217 728 217 808 q 336 578 217 629 q 560 490 447 533 q 679 281 679 421 q 614 88 679 167 q 436 0 549 8 l 436 -151 l 347 -151 l 347 0 q 170 92 236 11 q 104 286 104 172 z "},"%":{"ha":1218,"x_min":63,"x_max":1156,"o":"m 672 222 q 743 393 672 322 q 914 464 814 464 q 1085 394 1015 464 q 1156 222 1156 324 q 1085 51 1156 121 q 914 -19 1015 -19 q 743 51 814 -19 q 672 222 672 122 m 754 222 q 801 108 754 158 q 911 58 847 58 q 1025 108 976 58 q 1074 222 1074 157 q 1026 338 1074 289 q 911 386 978 386 q 800 338 846 386 q 754 222 754 289 m 283 -19 l 851 1007 l 935 1007 l 367 -19 l 283 -19 m 63 765 q 133 937 63 867 q 304 1007 203 1007 q 476 937 406 1007 q 546 765 546 867 q 476 594 546 664 q 304 524 406 524 q 133 594 204 524 q 63 765 63 665 m 143 765 q 190 650 143 699 q 301 601 236 601 q 414 651 365 601 q 463 765 463 701 q 415 881 463 832 q 301 929 368 929 q 189 881 235 929 q 143 765 143 832 z "},"&":{"ha":969,"x_min":88,"x_max":938,"o":"m 678 192 q 375 -19 581 -19 q 172 68 256 -19 q 88 275 88 156 q 144 446 88 368 q 286 557 197 518 q 199 654 224 614 q 164 778 164 710 q 235 941 164 876 q 404 1006 306 1006 q 563 938 496 1006 q 631 778 631 871 q 433 538 631 625 l 649 339 l 765 651 l 847 618 l 715 275 l 938 72 l 882 7 l 678 192 m 614 250 l 340 503 q 185 275 185 429 q 239 125 185 186 q 381 64 293 64 q 614 250 507 64 m 376 593 q 536 782 536 656 q 497 885 536 840 q 400 929 458 929 q 296 886 335 929 q 257 776 257 843 q 376 593 257 692 z "},"'":{"ha":194,"x_min":67,"x_max":131,"o":"m 131 999 l 131 626 l 67 626 l 67 999 l 131 999 z "},"(":{"ha":368,"x_min":88,"x_max":293,"o":"m 293 1019 l 293 913 q 189 726 208 846 q 179 585 179 665 l 179 131 q 199 -56 179 22 q 293 -197 219 -137 l 293 -304 q 88 114 88 -192 l 88 601 q 293 1019 88 907 z "},")":{"ha":368,"x_min":76,"x_max":282,"o":"m 76 1019 q 282 601 282 907 l 282 114 q 76 -304 282 -189 l 76 -197 q 172 -56 153 -136 q 190 131 190 19 l 190 585 q 172 772 190 699 q 76 913 153 851 l 76 1019 z "},"*":{"ha":692,"x_min":86,"x_max":604,"o":"m 344 669 l 218 489 l 151 535 l 289 708 l 86 767 l 108 842 l 308 776 l 308 986 l 381 986 l 381 776 l 579 842 l 604 767 l 399 708 l 539 535 l 472 489 l 344 669 z "},"+":{"ha":1157,"x_min":171,"x_max":986,"o":"m 614 838 l 614 457 l 986 457 l 986 390 l 614 390 l 614 10 l 544 10 l 544 390 l 171 390 l 171 457 l 544 457 l 544 838 l 614 838 z "},",":{"ha":389,"x_min":74,"x_max":268,"o":"m 165 -108 l 74 -108 l 176 179 l 268 179 l 165 -108 z "},"-":{"ha":444,"x_min":64,"x_max":379,"o":"m 379 418 l 379 336 l 64 336 l 64 418 l 379 418 z "},".":{"ha":388,"x_min":147,"x_max":239,"o":"m 239 3 l 147 3 l 147 179 l 239 179 l 239 3 z "},"/":{"ha":389,"x_min":-32,"x_max":388,"o":"m 44 -131 l -32 -131 l 310 1000 l 388 1000 l 44 -131 z "},":":{"ha":396,"x_min":153,"x_max":244,"o":"m 244 0 l 153 0 l 153 176 l 244 176 l 244 0 m 244 536 l 153 536 l 153 713 l 244 713 l 244 536 z "},";":{"ha":396,"x_min":72,"x_max":269,"o":"m 244 713 l 244 536 l 153 536 l 153 713 l 244 713 m 165 -110 l 72 -110 l 172 176 l 269 176 l 165 -110 z "},"<":{"ha":1160,"x_min":181,"x_max":979,"o":"m 979 699 l 276 414 l 979 131 l 979 61 l 181 388 l 181 440 l 979 768 l 979 699 z "},"=":{"ha":1157,"x_min":172,"x_max":985,"o":"m 985 572 l 985 510 l 172 510 l 172 572 l 985 572 m 985 318 l 985 256 l 172 256 l 172 318 l 985 318 z "},">":{"ha":1160,"x_min":181,"x_max":979,"o":"m 979 440 l 979 388 l 181 61 l 181 131 l 883 414 l 181 699 l 181 768 l 979 440 z "},"?":{"ha":640,"x_min":31,"x_max":600,"o":"m 275 0 l 275 176 l 367 176 l 367 0 l 275 0 m 367 271 l 275 271 q 378 508 275 396 q 465 597 422 553 q 503 718 503 644 q 455 859 503 807 q 319 911 407 911 q 172 847 224 911 q 125 690 125 789 l 31 690 q 111 913 31 824 q 325 1007 194 1007 q 528 925 451 1007 q 600 717 600 844 q 539 547 600 624 q 428 428 483 488 q 367 271 367 356 z "},"@":{"ha":1392,"x_min":81,"x_max":1311,"o":"m 868 486 q 718 625 842 625 q 533 517 601 625 q 474 301 474 425 q 508 185 474 228 q 618 138 547 138 q 753 192 694 138 q 826 318 807 242 l 868 486 m 883 560 l 910 658 l 985 650 l 890 269 q 879 207 879 225 q 954 142 879 142 q 1169 276 1086 142 q 1240 533 1240 392 q 1088 832 1240 721 q 756 931 950 931 q 328 766 501 931 q 154 347 154 601 q 314 -14 154 121 q 694 -140 464 -140 q 1126 -11 936 -140 l 1150 -44 q 708 -192 950 -192 q 267 -50 440 -192 q 81 364 81 101 q 286 814 81 635 q 757 986 482 986 q 974 954 875 986 q 1215 797 1124 906 q 1311 529 1311 682 q 1213 226 1311 356 q 938 86 1106 86 q 858 116 889 86 q 828 194 828 146 l 815 194 q 607 86 736 86 q 396 307 396 86 q 479 560 396 453 q 710 676 568 676 q 883 560 838 676 z "},"A":{"ha":825,"x_min":-15,"x_max":840,"o":"m 840 0 l 743 0 l 618 326 l 207 326 l 82 0 l -15 0 l 374 1000 l 451 1000 l 840 0 m 410 854 l 238 410 l 588 410 l 415 854 l 410 854 z "},"B":{"ha":725,"x_min":99,"x_max":671,"o":"m 99 0 l 99 1000 l 285 1000 q 519 950 442 1000 q 615 740 615 888 q 472 536 615 582 q 671 292 671 478 q 575 68 671 136 q 321 0 479 0 l 99 0 m 188 918 l 188 560 l 297 560 q 464 599 406 560 q 522 744 522 638 q 278 918 522 918 l 188 918 m 188 481 l 188 82 l 314 82 q 576 279 576 82 q 511 443 576 397 q 332 481 456 481 l 188 481 z "},"C":{"ha":1047,"x_min":47,"x_max":1000,"o":"m 1000 746 l 886 746 q 743 882 818 839 q 551 928 661 928 q 262 802 381 928 q 143 506 143 676 q 258 201 143 329 q 551 69 376 69 q 888 243 763 69 l 1000 243 q 817 49 932 117 q 558 -19 701 -19 q 192 132 336 -19 q 47 507 47 283 q 196 867 47 715 q 553 1019 344 1019 q 1000 746 856 1019 z "},"D":{"ha":949,"x_min":97,"x_max":901,"o":"m 97 0 l 97 1000 l 383 1000 q 761 869 621 1000 q 901 503 901 739 q 765 131 901 263 q 386 0 628 0 l 97 0 m 189 918 l 189 82 l 376 82 q 695 190 585 82 q 806 506 806 299 q 691 811 806 704 q 376 918 576 918 l 189 918 z "},"E":{"ha":692,"x_min":97,"x_max":613,"o":"m 613 0 l 97 0 l 97 1000 l 613 1000 l 613 918 l 188 918 l 188 556 l 563 556 l 563 474 l 188 474 l 188 82 l 613 82 l 613 0 z "},"F":{"ha":646,"x_min":97,"x_max":588,"o":"m 188 0 l 97 0 l 97 1000 l 588 1000 l 588 918 l 188 918 l 188 551 l 525 551 l 525 469 l 188 469 l 188 0 z "},"G":{"ha":1108,"x_min":47,"x_max":1065,"o":"m 1010 753 l 893 753 q 558 929 756 929 q 263 805 385 929 q 142 506 142 681 q 261 197 142 325 q 560 69 381 69 q 811 161 703 69 q 954 394 919 253 l 521 394 l 521 476 l 1065 476 q 910 122 1051 263 q 551 -19 764 -19 q 189 135 332 -19 q 47 506 47 285 q 196 872 47 725 q 564 1019 344 1019 q 1010 753 865 1019 z "},"H":{"ha":869,"x_min":99,"x_max":771,"o":"m 189 0 l 99 0 l 99 1000 l 189 1000 l 189 556 l 681 556 l 681 1000 l 771 1000 l 771 0 l 681 0 l 681 474 l 189 474 l 189 0 z "},"I":{"ha":296,"x_min":103,"x_max":193,"o":"m 193 0 l 103 0 l 103 1000 l 193 1000 l 193 0 z "},"J":{"ha":363,"x_min":-19,"x_max":257,"o":"m 165 1000 l 257 1000 l 257 263 q 199 48 257 104 q -19 -8 140 -8 l -19 79 q 138 119 104 79 q 165 281 165 154 l 165 1000 z "},"K":{"ha":783,"x_min":99,"x_max":786,"o":"m 669 0 l 189 514 l 189 0 l 99 0 l 99 1000 l 189 1000 l 189 517 l 644 1000 l 767 1000 l 300 521 l 786 0 l 669 0 z "},"L":{"ha":582,"x_min":100,"x_max":547,"o":"m 547 0 l 100 0 l 100 1000 l 190 1000 l 190 83 l 547 83 l 547 0 z "},"M":{"ha":1178,"x_min":97,"x_max":1081,"o":"m 632 0 l 546 0 l 192 889 l 183 889 q 188 831 188 831 l 188 0 l 97 0 l 97 1000 l 240 1000 l 586 119 l 592 119 l 938 1000 l 1081 1000 l 1081 0 l 990 0 l 990 831 q 994 889 990 831 l 986 889 l 632 0 z "},"N":{"ha":947,"x_min":97,"x_max":850,"o":"m 97 0 l 97 1000 l 213 1000 l 765 115 q 763 260 763 167 l 763 1000 l 850 1000 l 850 0 l 733 0 l 182 882 q 185 792 185 819 l 185 0 l 97 0 z "},"O":{"ha":1118,"x_min":46,"x_max":1072,"o":"m 1072 507 q 924 134 1072 288 q 556 -19 775 -19 q 191 133 336 -19 q 46 507 46 286 q 197 867 46 715 q 557 1019 349 1019 q 920 869 768 1019 q 1072 507 1072 718 m 978 508 q 853 809 978 683 q 556 935 729 935 q 264 805 388 935 q 140 506 140 675 q 260 196 140 322 q 563 65 381 65 q 861 199 742 65 q 978 508 978 328 z "},"P":{"ha":728,"x_min":99,"x_max":685,"o":"m 99 0 l 99 1000 l 342 1000 q 685 715 685 1000 q 350 428 685 428 l 190 428 l 190 0 l 99 0 m 190 918 l 190 510 l 342 510 q 585 711 585 510 q 333 918 585 918 l 190 918 z "},"Q":{"ha":1118,"x_min":46,"x_max":1072,"o":"m 1072 507 q 1013 260 1072 375 q 844 69 953 146 l 1072 79 l 1072 -19 l 699 0 l 656 -10 q 556 -19 606 -19 q 191 133 336 -19 q 46 507 46 286 q 197 867 46 715 q 557 1019 349 1019 q 921 869 769 1019 q 1072 507 1072 719 m 978 508 q 854 809 978 683 q 556 935 731 935 q 264 805 388 935 q 140 506 140 675 q 260 196 140 322 q 563 65 381 65 q 863 199 742 65 q 978 508 978 328 z "},"R":{"ha":717,"x_min":99,"x_max":681,"o":"m 571 0 l 190 510 l 190 0 l 99 0 l 99 1000 l 335 1000 q 672 715 672 1000 q 576 503 672 574 q 346 440 492 440 l 681 0 l 571 0 m 190 918 l 190 511 l 307 511 q 496 547 433 511 q 578 710 578 593 q 508 876 578 826 q 326 918 449 918 l 190 918 z "},"S":{"ha":665,"x_min":47,"x_max":614,"o":"m 47 282 l 138 282 q 186 132 138 194 q 325 65 239 65 q 469 132 415 65 q 519 285 519 193 q 404 457 519 397 q 190 554 297 506 q 75 756 75 622 q 149 947 75 874 q 340 1021 222 1021 q 522 947 457 1021 q 590 758 583 878 l 503 758 q 457 882 496 835 q 340 935 414 935 q 215 883 264 935 q 167 754 167 831 q 213 649 167 690 q 317 589 246 618 q 486 510 442 536 q 604 374 585 449 q 614 285 614 336 q 533 67 614 154 q 324 -21 453 -21 q 121 69 200 -21 q 47 282 47 156 z "},"T":{"ha":524,"x_min":13,"x_max":511,"o":"m 306 0 l 214 0 l 214 917 l 13 917 l 13 1000 l 511 1000 l 511 917 l 306 917 l 306 0 z "},"U":{"ha":826,"x_min":97,"x_max":731,"o":"m 97 1000 l 188 1000 l 188 293 q 414 65 188 65 q 640 293 640 65 l 640 1000 l 731 1000 l 731 285 q 646 59 731 139 q 414 -21 561 -21 q 183 59 268 -21 q 97 283 97 139 l 97 1000 z "},"V":{"ha":808,"x_min":-11,"x_max":819,"o":"m 819 1000 l 440 0 l 368 0 l -11 1000 l 86 1000 l 401 146 l 407 146 l 722 1000 l 819 1000 z "},"W":{"ha":1244,"x_min":6,"x_max":1239,"o":"m 382 0 l 306 0 l 6 1000 l 100 1000 l 340 146 l 349 146 l 589 1000 l 656 1000 l 896 146 l 904 146 l 1144 1000 l 1239 1000 l 939 0 l 863 0 l 626 832 l 618 832 l 382 0 z "},"X":{"ha":800,"x_min":-1,"x_max":801,"o":"m 114 0 l -1 0 l 346 504 l 7 1000 l 124 1000 l 401 579 l 678 1000 l 793 1000 l 454 504 l 801 0 l 683 0 l 401 431 l 114 0 z "},"Y":{"ha":733,"x_min":1,"x_max":732,"o":"m 411 401 l 411 0 l 321 0 l 321 400 l 1 1000 l 108 1000 l 367 508 l 628 1000 l 732 1000 l 411 401 z "},"Z":{"ha":642,"x_min":26,"x_max":615,"o":"m 499 911 l 54 911 l 54 1000 l 604 1000 l 604 910 l 132 92 l 615 92 l 615 0 l 26 0 l 26 90 l 499 911 z "},"[":{"ha":368,"x_min":93,"x_max":315,"o":"m 315 -207 l 315 -283 l 93 -283 l 93 1001 l 315 1001 l 315 924 l 185 924 l 185 -207 l 315 -207 z "},"\\":{"ha":389,"x_min":1,"x_max":421,"o":"m 343 -131 l 1 1000 l 78 1000 l 421 -131 l 343 -131 z "},"]":{"ha":368,"x_min":53,"x_max":276,"o":"m 53 -207 l 185 -207 l 185 924 l 53 924 l 53 1001 l 276 1001 l 276 -283 l 53 -283 l 53 -207 z "},"^":{"ha":692,"x_min":58,"x_max":632,"o":"m 392 999 l 632 744 l 536 744 l 346 935 l 154 744 l 58 744 l 300 999 l 392 999 z "},"_":{"ha":692,"x_min":-8,"x_max":700,"o":"m 700 -262 l 700 -325 l -8 -325 l -8 -262 l 700 -262 z "},"`":{"ha":660,"x_min":183,"x_max":406,"o":"m 353 810 l 183 1031 l 274 1031 l 406 810 l 353 810 z "},"a":{"ha":839,"x_min":38,"x_max":764,"o":"m 679 713 l 764 713 l 764 0 l 679 0 l 679 119 q 401 -18 575 -18 q 141 89 244 -18 q 38 354 38 196 q 143 622 38 514 q 408 729 249 729 q 679 576 585 729 l 679 713 m 679 360 q 599 562 679 474 q 406 650 519 650 q 206 561 285 650 q 128 350 128 472 q 207 147 128 233 q 403 61 286 61 q 555 112 486 61 q 657 240 624 163 q 679 360 679 293 z "},"b":{"ha":838,"x_min":76,"x_max":800,"o":"m 713 358 q 633 563 713 478 q 433 647 553 647 q 238 558 315 647 q 160 349 160 468 q 239 151 160 238 q 431 61 321 61 q 633 150 550 61 q 713 358 713 238 m 160 0 l 76 0 l 76 1069 l 160 1069 l 160 575 q 446 728 272 728 q 699 619 599 728 q 800 356 800 510 q 694 89 800 196 q 429 -18 589 -18 q 160 122 268 -18 l 160 0 z "},"c":{"ha":753,"x_min":38,"x_max":726,"o":"m 125 356 q 197 147 125 229 q 393 65 268 65 q 542 107 475 65 q 639 222 608 149 l 726 222 q 597 49 689 115 q 393 -17 506 -17 q 140 94 242 -17 q 38 357 38 204 q 140 619 38 510 q 393 729 242 729 q 593 668 506 729 q 721 501 681 607 l 633 501 q 393 647 565 647 q 195 566 265 647 q 125 356 125 485 z "},"d":{"ha":838,"x_min":38,"x_max":761,"o":"m 761 0 l 676 0 l 676 114 q 400 -18 571 -18 q 141 91 244 -18 q 38 356 38 200 q 140 621 38 514 q 400 728 243 728 q 676 590 575 728 l 676 1069 l 761 1069 l 761 0 m 681 349 q 603 560 681 472 q 401 647 525 647 q 205 562 283 647 q 126 358 126 476 q 204 151 126 238 q 404 61 285 61 q 601 145 522 61 q 681 349 681 229 z "},"e":{"ha":815,"x_min":43,"x_max":772,"o":"m 686 404 q 404 647 633 647 q 223 581 294 647 q 135 404 151 514 l 686 404 m 772 333 l 132 333 q 209 137 133 208 q 410 65 285 65 q 654 193 585 65 l 751 193 q 413 -17 639 -17 q 144 88 246 -17 q 43 360 43 192 q 149 626 43 524 q 418 729 254 729 q 682 613 586 729 q 772 333 772 504 z "},"f":{"ha":279,"x_min":0,"x_max":331,"o":"m 181 0 l 97 0 l 97 636 l 0 636 l 0 711 l 97 711 l 97 864 q 279 1078 97 1078 q 331 1069 297 1078 l 331 989 q 286 997 299 997 q 200 958 224 997 q 181 860 181 928 l 181 711 l 308 711 l 308 636 l 181 636 l 181 0 z "},"g":{"ha":839,"x_min":38,"x_max":764,"o":"m 683 394 q 597 575 683 499 q 406 651 511 651 q 207 575 286 651 q 128 379 128 499 q 200 167 128 247 q 406 82 275 82 q 556 126 488 82 q 660 246 625 171 q 683 394 683 296 m 679 713 l 764 713 l 764 85 q 403 -326 764 -326 q 200 -265 289 -326 q 82 -94 107 -201 l 181 -94 q 403 -243 238 -243 q 610 -169 539 -243 q 672 -18 658 -119 q 679 150 679 32 q 401 1 568 1 q 140 109 242 1 q 38 376 38 217 q 144 631 38 531 q 406 731 250 731 q 679 593 553 731 l 679 713 z "},"h":{"ha":736,"x_min":75,"x_max":668,"o":"m 668 0 l 586 0 l 586 460 q 538 598 586 549 q 401 647 490 647 q 317 629 360 647 q 196 513 238 596 q 158 346 158 439 l 158 0 l 75 0 l 75 1069 l 158 1069 l 158 579 q 267 685 196 643 q 410 728 338 728 q 602 658 536 728 q 668 460 668 588 l 668 0 z "},"i":{"ha":239,"x_min":78,"x_max":161,"o":"m 78 0 l 78 711 l 161 711 l 161 0 l 78 0 m 161 806 l 78 806 l 78 949 l 161 949 l 161 806 z "},"j":{"ha":238,"x_min":-72,"x_max":160,"o":"m 76 713 l 160 713 l 160 -121 q 100 -285 160 -237 q -72 -326 47 -326 l -72 -249 q 40 -226 10 -249 q 76 -121 76 -200 l 76 713 m 160 807 l 76 807 l 76 950 l 160 950 l 160 807 z "},"k":{"ha":604,"x_min":75,"x_max":596,"o":"m 158 1069 l 158 383 l 467 711 l 575 711 l 249 382 l 596 0 l 492 0 l 158 381 l 158 0 l 75 0 l 75 1069 l 158 1069 z "},"l":{"ha":236,"x_min":76,"x_max":160,"o":"m 76 0 l 76 1069 l 160 1069 l 160 0 l 76 0 z "},"m":{"ha":1165,"x_min":75,"x_max":1099,"o":"m 75 713 l 157 713 l 157 589 q 256 686 194 646 q 386 729 322 729 q 525 699 474 729 q 610 590 576 668 q 717 690 649 651 q 856 729 785 729 q 1099 461 1099 729 l 1099 0 l 1014 0 l 1014 461 q 971 594 1014 542 q 844 650 924 650 q 697 577 764 650 q 629 424 629 504 l 629 0 l 546 0 l 546 443 q 511 594 546 549 q 369 650 471 650 q 224 573 289 650 q 160 414 160 496 l 160 0 l 75 0 l 75 713 z "},"n":{"ha":739,"x_min":75,"x_max":671,"o":"m 75 713 l 160 713 l 160 581 q 267 688 199 647 q 411 729 335 729 q 608 653 546 729 q 671 461 671 576 l 671 0 l 588 0 l 588 461 q 539 600 588 550 q 403 650 490 650 q 267 600 326 650 q 182 481 211 556 q 160 347 160 424 l 160 0 l 75 0 l 75 713 z "},"o":{"ha":808,"x_min":38,"x_max":771,"o":"m 38 357 q 143 621 38 513 q 404 729 249 729 q 666 621 561 729 q 771 356 771 513 q 666 91 771 199 q 404 -17 561 -17 q 143 92 249 -17 q 38 357 38 201 m 124 356 q 201 147 124 229 q 404 65 279 65 q 610 146 533 65 q 686 356 686 226 q 611 567 686 488 q 404 647 536 647 q 199 567 275 647 q 124 356 124 486 z "},"p":{"ha":839,"x_min":75,"x_max":801,"o":"m 714 361 q 633 565 714 479 q 433 650 551 650 q 235 560 315 650 q 156 351 156 471 q 238 151 156 240 q 431 63 319 63 q 632 151 550 63 q 714 361 714 240 m 158 714 l 158 578 q 446 731 274 731 q 700 622 599 731 q 801 358 801 513 q 695 91 801 199 q 429 -17 589 -17 q 158 125 268 -17 l 158 -310 l 75 -310 l 75 714 l 158 714 z "},"q":{"ha":839,"x_min":38,"x_max":764,"o":"m 128 361 q 208 152 128 242 q 407 63 289 63 q 601 151 519 63 q 683 351 683 239 q 603 561 683 472 q 404 650 524 650 q 208 565 288 650 q 128 361 128 479 m 679 714 l 764 714 l 764 -310 l 679 -310 l 679 125 q 408 -17 571 -17 q 143 91 249 -17 q 38 358 38 199 q 140 622 38 513 q 394 731 242 731 q 679 578 564 731 l 679 714 z "},"r":{"ha":338,"x_min":79,"x_max":372,"o":"m 164 0 l 79 0 l 79 713 l 160 713 l 160 632 q 321 721 217 721 q 372 713 339 721 l 372 628 q 332 632 356 632 q 164 433 164 632 l 164 0 z "},"s":{"ha":536,"x_min":42,"x_max":499,"o":"m 42 219 l 129 219 q 167 111 129 158 q 265 64 204 64 q 376 101 342 64 q 411 183 411 139 q 324 307 411 264 q 160 379 242 343 q 72 532 72 431 q 133 674 72 617 q 278 732 193 732 q 478 538 472 732 l 385 538 q 271 647 379 647 q 190 616 221 647 q 160 535 160 585 q 240 432 160 474 q 396 361 318 396 q 496 235 483 311 q 499 192 499 215 q 428 38 499 94 q 264 -17 363 -17 q 100 49 158 -17 q 42 219 42 114 z "},"t":{"ha":290,"x_min":4,"x_max":311,"o":"m 106 876 l 188 876 l 188 711 l 311 711 l 311 628 l 188 628 l 188 0 l 106 0 l 106 628 l 4 628 l 4 711 l 106 711 l 106 876 z "},"u":{"ha":739,"x_min":67,"x_max":664,"o":"m 67 713 l 153 713 l 153 299 q 336 63 153 63 q 521 149 456 63 q 579 349 579 226 l 579 713 l 664 713 l 664 0 l 583 0 l 583 119 q 325 -17 483 -17 q 67 292 67 -17 l 67 713 z "},"v":{"ha":643,"x_min":-3,"x_max":644,"o":"m 357 0 l 283 0 l -3 713 l 88 713 l 318 124 l 325 124 l 554 713 l 644 713 l 357 0 z "},"w":{"ha":935,"x_min":1,"x_max":933,"o":"m 665 151 l 840 713 l 933 713 l 693 0 l 636 0 l 467 568 l 300 0 l 242 0 l 1 713 l 93 713 l 269 151 l 435 713 l 500 713 l 665 151 z "},"x":{"ha":596,"x_min":11,"x_max":585,"o":"m 568 713 l 349 369 l 585 0 l 485 0 l 299 301 l 110 0 l 11 0 l 247 369 l 28 713 l 126 713 l 299 438 l 469 713 l 568 713 z "},"y":{"ha":649,"x_min":1,"x_max":660,"o":"m 569 714 l 660 714 l 253 -310 l 163 -310 l 292 8 l 1 714 l 92 714 l 333 132 l 339 132 l 569 714 z "},"z":{"ha":540,"x_min":21,"x_max":510,"o":"m 510 0 l 21 0 l 21 82 l 394 632 l 61 632 l 61 713 l 490 713 l 490 631 l 115 81 l 510 81 l 510 0 z "},"{":{"ha":700,"x_min":143,"x_max":588,"o":"m 588 -219 l 588 -289 l 557 -289 q 368 -233 415 -289 q 325 -33 325 -182 l 325 138 q 288 288 325 243 q 143 335 246 335 l 143 401 q 288 450 247 401 q 325 600 325 493 l 325 768 q 369 968 325 917 q 471 1018 403 1007 q 588 1024 506 1024 l 588 954 q 507 951 528 954 q 436 915 460 943 q 404 758 404 878 q 406 689 404 736 q 407 618 407 642 q 378 447 407 500 q 263 367 350 394 q 378 289 350 342 q 407 114 407 236 q 406 43 407 90 q 404 -26 404 -4 q 433 -179 404 -143 q 588 -219 465 -219 z "},"|":{"ha":693,"x_min":314,"x_max":379,"o":"m 379 1014 l 379 -314 l 314 -314 l 314 1014 l 379 1014 z "},"}":{"ha":700,"x_min":113,"x_max":557,"o":"m 113 -289 l 113 -219 q 221 -210 192 -219 q 285 -140 269 -193 q 294 -42 294 -110 l 294 128 q 321 288 294 239 q 438 367 350 342 q 322 447 350 394 q 293 619 293 500 q 294 691 293 643 q 296 761 296 739 q 265 917 296 879 q 113 954 233 954 l 113 1024 l 143 1024 q 332 968 283 1024 q 375 768 375 918 l 375 600 q 413 450 375 494 q 557 401 454 401 l 557 335 q 415 289 454 335 q 375 138 375 243 l 375 -33 q 361 -179 375 -133 q 263 -276 336 -256 q 113 -289 218 -289 z "},"~":{"ha":785,"x_min":39,"x_max":744,"o":"m 744 538 l 744 444 q 543 326 643 326 q 389 386 486 326 q 239 446 292 446 q 39 311 158 446 l 39 400 q 239 525 147 525 q 395 465 299 525 q 543 404 492 404 q 744 538 632 404 z "},"¤":{"ha":785,"x_min":49,"x_max":735,"o":"m 221 785 q 392 846 299 846 q 564 785 486 846 l 697 918 l 735 881 l 601 747 q 661 576 661 667 q 601 407 661 486 l 735 272 l 697 233 l 564 367 q 392 307 486 307 q 221 367 299 307 l 88 233 l 49 272 l 182 407 q 122 576 122 486 q 182 747 122 667 l 49 881 l 88 918 l 221 785 m 607 578 q 544 728 607 667 q 393 790 482 790 q 241 728 306 790 q 176 578 176 665 q 241 426 176 490 q 393 361 306 361 q 544 426 481 361 q 607 578 607 490 z "},"¦":{"ha":693,"x_min":313,"x_max":382,"o":"m 382 1001 l 382 463 l 313 463 l 313 1001 l 382 1001 m 382 289 l 382 -250 l 313 -250 l 313 289 l 382 289 z "},"§":{"ha":692,"x_min":74,"x_max":615,"o":"m 114 133 l 203 133 q 339 -19 203 -19 q 465 97 465 -19 q 438 179 465 147 q 301 278 404 218 q 147 379 186 343 q 74 522 74 444 q 211 725 74 653 q 138 865 138 779 q 199 1006 138 953 q 349 1058 260 1058 q 560 833 560 1058 l 478 833 q 340 983 478 983 q 258 951 289 983 q 228 868 228 919 q 325 732 228 790 l 463 650 q 579 556 546 600 q 615 439 615 507 q 482 247 615 319 q 556 93 556 182 q 491 -47 556 4 q 336 -97 426 -97 q 174 -41 235 -97 q 114 115 114 15 l 114 133 m 432 297 q 522 431 522 357 q 414 578 522 510 l 263 672 q 163 546 163 632 q 263 406 163 469 l 432 297 z "},"©":{"ha":1157,"x_min":82,"x_max":1075,"o":"m 578 988 q 931 844 788 988 q 1075 490 1075 700 q 932 142 1075 282 q 578 -7 781 -7 q 228 139 374 -7 q 82 490 82 285 q 231 844 82 694 q 578 988 372 988 m 1026 490 q 895 808 1026 676 q 578 939 764 939 q 263 806 394 939 q 131 490 131 674 q 264 176 131 310 q 578 43 397 43 q 827 120 710 43 q 994 319 944 197 q 1026 490 1026 399 m 732 625 q 581 739 706 739 q 439 657 485 739 q 401 489 401 592 q 440 324 401 390 q 581 244 488 244 q 686 278 643 244 q 740 374 729 313 l 813 374 q 733 233 806 286 q 576 185 667 185 q 379 278 447 185 q 319 493 319 358 q 385 706 319 624 q 583 796 456 796 q 729 754 669 796 q 806 625 797 707 l 732 625 z "},"«":{"ha":631,"x_min":79,"x_max":538,"o":"m 244 157 l 79 372 l 244 589 l 331 589 l 163 372 l 331 157 l 244 157 m 451 157 l 286 372 l 451 589 l 538 589 l 371 372 l 538 157 l 451 157 z "},"¬":{"ha":1157,"x_min":172,"x_max":985,"o":"m 985 581 l 985 243 l 924 243 l 924 517 l 172 517 l 172 581 l 985 581 z "},"®":{"ha":1157,"x_min":82,"x_max":1075,"o":"m 578 988 q 931 844 788 988 q 1075 490 1075 700 q 932 142 1075 282 q 578 -7 781 -7 q 228 140 374 -7 q 82 490 82 286 q 231 844 82 694 q 578 988 372 988 m 1026 489 q 994 663 1026 582 q 897 806 964 739 q 578 939 763 939 q 263 806 396 939 q 131 490 131 672 q 264 176 131 310 q 578 43 397 43 q 827 120 710 43 q 994 319 944 197 q 1026 489 1026 397 m 593 783 q 828 628 828 783 q 790 526 828 565 q 690 479 753 488 l 819 214 l 726 214 l 604 467 l 467 467 l 467 214 l 385 214 l 385 783 l 593 783 m 576 731 l 467 731 l 467 518 l 576 518 q 689 533 653 518 q 744 622 744 557 q 576 731 744 731 z "},"°":{"ha":454,"x_min":40,"x_max":414,"o":"m 228 983 q 360 929 307 983 q 414 796 414 875 q 358 664 414 719 q 226 608 303 608 q 95 664 150 608 q 40 796 40 719 q 95 928 40 874 q 228 983 150 983 m 372 796 q 331 899 372 857 q 228 942 289 942 q 125 899 168 942 q 82 796 82 856 q 125 694 82 736 q 228 651 168 651 q 330 694 288 651 q 372 796 372 736 z "},"±":{"ha":1157,"x_min":172,"x_max":985,"o":"m 610 793 l 610 556 l 985 556 l 985 493 l 610 493 l 610 256 l 549 256 l 549 493 l 172 493 l 172 556 l 549 556 l 549 793 l 610 793 m 985 97 l 985 35 l 172 35 l 172 97 l 985 97 z "},"¶":{"ha":692,"x_min":57,"x_max":635,"o":"m 635 961 l 549 961 l 549 0 l 499 0 l 499 961 l 364 961 l 364 0 l 314 0 l 314 533 q 133 597 203 539 q 57 768 57 660 q 136 943 57 879 q 322 1003 208 1003 l 635 1003 l 635 961 z "},"»":{"ha":631,"x_min":93,"x_max":553,"o":"m 179 157 l 93 157 l 261 372 l 93 589 l 179 589 l 344 372 l 179 157 m 386 157 l 301 157 l 468 372 l 301 589 l 386 589 l 553 372 l 386 157 z "},"µ":{"ha":753,"x_min":-75,"x_max":703,"o":"m 231 724 l 144 322 q 133 226 133 271 q 290 57 133 57 q 531 346 467 57 l 614 724 l 703 724 l 592 200 q 575 108 575 121 q 625 57 575 57 q 683 65 646 57 l 661 1 q 576 -15 621 -15 q 501 19 521 -15 q 486 103 486 44 q 279 -15 426 -15 q 94 96 151 -15 l 14 -290 l -75 -290 l 140 724 l 231 724 z "},"Ё":{"ha":692,"x_min":97,"x_max":613,"o":"m 196 1089 l 196 1206 l 292 1206 l 292 1089 l 196 1089 m 436 1089 l 436 1206 l 532 1206 l 532 1089 l 436 1089 m 613 0 l 97 0 l 97 1000 l 613 1000 l 613 917 l 188 917 l 188 556 l 563 556 l 563 472 l 188 472 l 188 82 l 613 82 l 613 0 z "},"А":{"ha":825,"x_min":-15,"x_max":840,"o":"m 840 0 l 743 0 l 618 326 l 207 326 l 82 0 l -15 0 l 374 1000 l 451 1000 l 840 0 m 410 854 l 238 410 l 588 410 l 415 854 l 410 854 z "},"Б":{"ha":751,"x_min":99,"x_max":700,"o":"m 624 1000 l 624 918 l 190 918 l 190 592 l 360 592 q 601 522 514 592 q 700 296 700 446 q 601 71 700 149 q 360 0 511 0 l 99 0 l 99 1000 l 624 1000 m 190 510 l 190 82 l 360 82 q 532 135 465 82 q 604 296 604 193 q 532 457 604 400 q 360 510 467 510 l 190 510 z "},"В":{"ha":725,"x_min":99,"x_max":671,"o":"m 99 0 l 99 1000 l 285 1000 q 519 950 442 1000 q 615 740 615 888 q 472 536 615 582 q 671 292 671 478 q 575 68 671 136 q 321 0 479 0 l 99 0 m 188 918 l 188 560 l 297 560 q 464 599 406 560 q 522 744 522 638 q 278 918 522 918 l 188 918 m 188 481 l 188 82 l 314 82 q 576 279 576 82 q 511 443 576 397 q 332 481 456 481 l 188 481 z "},"Г":{"ha":590,"x_min":93,"x_max":565,"o":"m 93 0 l 93 1000 l 565 1000 l 565 918 l 183 918 l 183 0 l 93 0 z "},"Д":{"ha":883,"x_min":0,"x_max":883,"o":"m 61 83 l 403 1000 l 481 1000 l 822 83 l 883 83 l 883 -175 l 799 -175 l 799 0 l 85 0 l 85 -175 l 0 -175 l 0 83 l 61 83 m 439 872 l 154 83 l 729 83 l 444 872 l 439 872 z "},"Е":{"ha":692,"x_min":97,"x_max":613,"o":"m 613 0 l 97 0 l 97 1000 l 613 1000 l 613 918 l 188 918 l 188 556 l 563 556 l 563 474 l 188 474 l 188 82 l 613 82 l 613 0 z "},"Ж":{"ha":1240,"x_min":-8,"x_max":1249,"o":"m 110 0 l -8 0 l 463 521 l 13 1000 l 135 1000 l 575 517 l 575 1000 l 665 1000 l 665 517 l 1106 1000 l 1228 1000 l 778 521 l 1249 0 l 1131 0 l 665 514 l 665 0 l 575 0 l 575 514 l 110 0 z "},"З":{"ha":731,"x_min":56,"x_max":668,"o":"m 56 276 l 157 276 q 213 129 157 185 q 361 74 269 74 q 510 131 449 74 q 572 275 572 189 q 538 390 572 338 q 444 467 503 442 q 358 483 410 481 q 271 482 386 482 l 271 568 l 350 568 q 491 616 435 568 q 547 747 547 664 q 496 874 547 821 q 371 926 444 926 q 240 875 297 926 q 183 750 183 824 l 85 750 q 165 939 85 861 q 358 1017 246 1017 q 560 942 479 1017 q 642 749 642 868 q 504 528 642 599 q 668 274 668 453 q 577 67 668 151 q 364 -18 486 -18 q 146 66 236 -18 q 56 276 56 150 z "},"И":{"ha":964,"x_min":97,"x_max":867,"o":"m 867 1000 l 867 0 l 772 0 l 772 864 l 197 0 l 97 0 l 97 1000 l 189 1000 l 189 136 l 764 1000 l 867 1000 z "},"Й":{"ha":964,"x_min":97,"x_max":867,"o":"m 867 1000 l 867 0 l 772 0 l 772 864 l 197 0 l 97 0 l 97 1000 l 189 1000 l 189 135 l 764 1000 l 867 1000 m 358 1238 q 482 1153 358 1153 q 606 1238 606 1153 l 686 1238 q 618 1119 681 1161 q 482 1082 563 1082 q 346 1119 401 1082 q 278 1238 283 1161 l 358 1238 z "},"К":{"ha":783,"x_min":100,"x_max":788,"o":"m 671 0 l 190 514 l 190 0 l 100 0 l 100 1000 l 190 1000 l 190 517 l 646 1000 l 768 1000 l 301 521 l 788 0 l 671 0 z "},"Л":{"ha":808,"x_min":-11,"x_max":819,"o":"m -11 0 l 365 1000 l 443 1000 l 819 0 l 722 0 l 407 854 l 401 854 l 86 0 l -11 0 z "},"М":{"ha":1178,"x_min":97,"x_max":1081,"o":"m 632 0 l 546 0 l 192 889 l 183 889 q 188 831 188 831 l 188 0 l 97 0 l 97 1000 l 240 1000 l 586 119 l 592 119 l 938 1000 l 1081 1000 l 1081 0 l 990 0 l 990 831 q 994 889 990 831 l 986 889 l 632 0 z "},"Н":{"ha":869,"x_min":99,"x_max":771,"o":"m 189 0 l 99 0 l 99 1000 l 189 1000 l 189 556 l 681 556 l 681 1000 l 771 1000 l 771 0 l 681 0 l 681 474 l 189 474 l 189 0 z "},"О":{"ha":1118,"x_min":46,"x_max":1072,"o":"m 1072 507 q 924 134 1072 288 q 556 -19 775 -19 q 191 133 336 -19 q 46 507 46 286 q 197 867 46 715 q 557 1019 349 1019 q 921 869 769 1019 q 1072 507 1072 719 m 978 508 q 854 809 978 683 q 556 935 731 935 q 264 805 388 935 q 140 506 140 675 q 260 196 140 322 q 563 65 381 65 q 863 199 742 65 q 978 508 978 328 z "},"П":{"ha":851,"x_min":99,"x_max":753,"o":"m 189 0 l 99 0 l 99 1000 l 753 1000 l 753 0 l 663 0 l 663 913 l 189 913 l 189 0 z "},"Р":{"ha":728,"x_min":99,"x_max":685,"o":"m 99 0 l 99 1000 l 342 1000 q 685 715 685 1000 q 350 428 685 428 l 190 428 l 190 0 l 99 0 m 190 918 l 190 510 l 342 510 q 585 711 585 510 q 333 918 585 918 l 190 918 z "},"С":{"ha":1047,"x_min":47,"x_max":1000,"o":"m 1000 746 l 886 746 q 743 882 818 839 q 551 928 661 928 q 262 802 381 928 q 143 506 143 676 q 258 201 143 329 q 551 69 376 69 q 888 243 763 69 l 1000 243 q 817 49 932 117 q 558 -19 701 -19 q 192 132 336 -19 q 47 507 47 283 q 196 867 47 715 q 553 1019 344 1019 q 1000 746 856 1019 z "},"Т":{"ha":524,"x_min":13,"x_max":511,"o":"m 306 0 l 214 0 l 214 917 l 13 917 l 13 1000 l 511 1000 l 511 917 l 306 917 l 306 0 z "},"У":{"ha":858,"x_min":1,"x_max":874,"o":"m 1 1000 l 101 1000 l 436 258 l 442 258 l 774 1000 l 874 1000 l 422 0 l 326 0 l 393 143 l 1 1000 z "},"Ф":{"ha":1082,"x_min":38,"x_max":1044,"o":"m 497 0 l 497 185 l 432 185 q 151 267 256 185 q 38 528 38 356 q 442 865 38 865 l 497 865 l 497 1000 l 585 1000 l 585 865 l 640 865 q 1044 528 1044 865 q 931 267 1044 356 q 650 185 826 185 l 585 185 l 585 0 l 497 0 m 497 267 l 497 783 l 451 783 q 221 733 293 783 q 133 522 133 674 q 219 318 133 379 q 442 267 293 267 l 497 267 m 585 783 l 585 267 l 640 267 q 863 318 789 267 q 949 522 949 379 q 861 733 949 674 q 631 783 789 783 l 585 783 z "},"Х":{"ha":800,"x_min":-1,"x_max":801,"o":"m 114 0 l -1 0 l 346 504 l 7 1000 l 124 1000 l 401 579 l 678 1000 l 793 1000 l 454 504 l 801 0 l 683 0 l 401 431 l 114 0 z "},"Ц":{"ha":842,"x_min":104,"x_max":824,"o":"m 104 1000 l 194 1000 l 194 83 l 639 83 l 639 1000 l 729 1000 l 729 83 l 824 83 l 824 -175 l 740 -175 l 740 0 l 104 0 l 104 1000 z "},"Ч":{"ha":722,"x_min":50,"x_max":619,"o":"m 619 1000 l 619 0 l 528 0 l 528 475 q 286 424 401 424 q 50 661 50 424 l 50 1000 l 139 1000 l 139 661 q 286 506 139 506 q 528 564 400 506 l 528 1000 l 619 1000 z "},"Ш":{"ha":1182,"x_min":97,"x_max":1085,"o":"m 97 0 l 97 1000 l 188 1000 l 188 82 l 546 82 l 546 1000 l 636 1000 l 636 82 l 994 82 l 994 1000 l 1085 1000 l 1085 0 l 97 0 z "},"Щ":{"ha":1203,"x_min":104,"x_max":1186,"o":"m 104 0 l 104 1000 l 194 1000 l 194 83 l 553 83 l 553 1000 l 643 1000 l 643 83 l 1000 83 l 1000 1000 l 1092 1000 l 1092 83 l 1186 83 l 1186 -175 l 1103 -175 l 1103 0 l 104 0 z "},"Ъ":{"ha":779,"x_min":17,"x_max":732,"o":"m 164 0 l 164 918 l 17 918 l 17 1000 l 256 1000 l 256 585 l 394 585 q 635 515 547 585 q 732 290 732 439 q 635 68 732 143 q 394 0 547 0 l 164 0 m 256 503 l 256 82 l 394 82 q 565 133 499 82 q 638 290 638 189 q 565 450 638 393 q 394 503 500 503 l 256 503 z "},"Ы":{"ha":950,"x_min":101,"x_max":849,"o":"m 758 0 l 758 1000 l 849 1000 l 849 0 l 758 0 m 101 0 l 101 1000 l 192 1000 l 192 585 l 331 585 q 572 515 485 585 q 669 290 669 440 q 571 67 669 142 q 331 0 483 0 l 101 0 m 192 503 l 192 82 l 331 82 q 501 133 435 82 q 574 290 574 189 q 501 450 574 393 q 331 503 436 503 l 192 503 z "},"Ь":{"ha":715,"x_min":101,"x_max":669,"o":"m 101 0 l 101 1000 l 192 1000 l 192 585 l 332 585 q 572 515 485 585 q 669 290 669 439 q 572 68 669 143 q 332 0 485 0 l 101 0 m 192 503 l 192 82 l 332 82 q 501 133 435 82 q 575 290 575 190 q 503 450 575 392 q 332 503 436 503 l 192 503 z "},"Э":{"ha":1008,"x_min":47,"x_max":961,"o":"m 47 746 q 476 1019 186 1019 q 829 869 692 1019 q 961 507 961 725 q 832 132 961 278 q 471 -19 697 -19 q 223 50 333 -19 q 47 243 113 119 l 154 243 q 478 67 249 67 q 751 189 646 67 q 864 474 849 300 l 347 474 l 347 556 l 863 556 q 746 824 844 721 q 478 933 640 933 q 156 746 276 933 l 47 746 z "},"Ю":{"ha":1353,"x_min":99,"x_max":1306,"o":"m 189 1000 l 189 553 l 286 553 q 450 883 300 746 q 793 1021 600 1021 q 1161 876 1017 1021 q 1306 507 1306 731 q 1160 131 1306 282 q 792 -21 1015 -21 q 443 121 586 -21 q 286 465 303 258 l 189 465 l 189 0 l 99 0 l 99 1000 l 189 1000 m 799 65 q 1099 197 981 65 q 1211 508 1211 325 q 1092 813 1211 690 q 792 935 972 935 q 502 804 625 935 q 379 506 379 674 q 499 194 379 324 q 799 65 618 65 z "},"Я":{"ha":724,"x_min":36,"x_max":625,"o":"m 138 710 q 221 549 138 594 q 410 514 285 514 l 533 514 l 533 918 l 390 918 q 138 710 138 918 m 625 0 l 533 0 l 533 513 l 146 0 l 36 0 l 379 440 q 146 503 233 440 q 46 715 46 575 q 147 932 46 854 q 382 1000 239 1000 l 625 1000 l 625 0 z "},"а":{"ha":839,"x_min":38,"x_max":764,"o":"m 679 713 l 764 713 l 764 0 l 679 0 l 679 119 q 401 -18 575 -18 q 141 89 244 -18 q 38 354 38 196 q 143 622 38 514 q 408 729 249 729 q 679 576 585 729 l 679 713 m 679 360 q 599 562 679 474 q 406 650 519 650 q 206 561 285 650 q 128 350 128 472 q 207 147 128 233 q 403 61 286 61 q 555 112 486 61 q 657 240 624 163 q 679 360 679 293 z "},"б":{"ha":797,"x_min":51,"x_max":756,"o":"m 756 353 q 659 88 756 193 q 403 -17 563 -17 q 144 92 240 -17 q 51 358 51 194 l 51 576 q 431 1069 51 1069 l 714 1069 l 714 988 l 431 988 q 303 968 356 988 q 158 797 196 929 q 133 563 133 714 q 258 668 178 626 q 417 710 339 710 q 663 608 569 710 q 756 353 756 507 m 133 347 q 206 143 133 222 q 403 64 279 64 q 601 144 529 64 q 671 349 671 221 q 604 549 671 471 q 417 626 538 626 q 270 590 340 626 q 161 492 200 554 q 136 422 140 458 q 133 347 133 406 z "},"в":{"ha":610,"x_min":76,"x_max":569,"o":"m 76 0 l 76 713 l 350 713 q 479 656 428 713 q 531 522 531 600 q 440 378 531 422 l 440 372 q 569 196 569 325 q 510 51 569 101 q 356 0 451 0 l 76 0 m 158 635 l 158 406 l 319 406 q 415 435 378 406 q 451 522 451 465 q 418 604 451 574 q 333 635 385 635 l 158 635 m 158 332 l 158 78 l 343 78 q 483 204 483 78 q 439 301 483 267 q 333 332 397 332 l 158 332 z "},"г":{"ha":432,"x_min":76,"x_max":415,"o":"m 76 0 l 76 713 l 415 713 l 415 633 l 161 633 l 161 0 l 76 0 z "},"д":{"ha":672,"x_min":4,"x_max":668,"o":"m 668 -147 l 592 -147 l 592 0 l 81 0 l 81 -147 l 4 -147 l 4 78 l 58 78 l 299 713 l 372 713 l 614 78 l 668 78 l 668 -147 m 526 78 l 339 582 l 333 582 l 146 78 l 526 78 z "},"е":{"ha":815,"x_min":43,"x_max":772,"o":"m 686 404 q 404 647 633 647 q 223 581 294 647 q 135 404 151 514 l 686 404 m 772 333 l 132 333 q 209 137 133 208 q 410 65 285 65 q 654 193 585 65 l 751 193 q 413 -17 639 -17 q 144 88 246 -17 q 43 360 43 192 q 149 626 43 524 q 418 729 254 729 q 682 613 586 729 q 772 333 772 504 z "},"ж":{"ha":949,"x_min":11,"x_max":949,"o":"m 438 0 l 438 371 l 119 0 l 11 0 l 346 372 l 33 713 l 139 713 l 438 374 l 438 713 l 522 713 l 522 374 l 821 713 l 926 713 l 614 372 l 949 0 l 840 0 l 522 371 l 522 0 l 438 0 z "},"з":{"ha":599,"x_min":39,"x_max":556,"o":"m 39 208 l 126 208 q 294 65 126 65 q 425 104 382 65 q 468 193 468 143 q 419 288 468 244 q 328 326 385 318 q 228 331 301 331 l 228 407 l 275 407 q 388 433 339 407 q 447 526 447 467 q 423 599 447 567 q 361 640 399 631 q 304 647 336 647 q 196 619 240 647 q 143 528 143 588 l 58 528 q 138 683 58 629 q 311 729 204 729 q 469 678 411 729 q 533 526 533 624 q 413 375 533 424 q 556 192 556 326 q 474 33 556 92 q 296 -17 401 -17 q 113 36 181 -17 q 39 208 39 96 z "},"и":{"ha":736,"x_min":75,"x_max":661,"o":"m 160 114 l 563 713 l 661 713 l 661 0 l 575 0 l 575 599 l 174 0 l 75 0 l 75 713 l 160 713 l 160 114 z "},"й":{"ha":736,"x_min":76,"x_max":660,"o":"m 160 113 l 563 711 l 660 711 l 660 0 l 575 0 l 575 597 l 174 0 l 76 0 l 76 711 l 160 711 l 160 113 m 481 972 l 567 972 q 368 831 538 831 q 171 972 200 831 l 258 972 q 297 917 258 938 q 368 899 331 899 q 439 917 404 899 q 481 972 481 939 z "},"к":{"ha":596,"x_min":76,"x_max":600,"o":"m 158 713 l 158 0 l 76 0 l 76 713 l 158 713 m 492 0 l 157 374 l 472 713 l 576 713 l 246 376 l 600 0 l 492 0 z "},"л":{"ha":642,"x_min":-3,"x_max":644,"o":"m 285 713 l 358 713 l 644 0 l 551 0 l 325 576 l 319 576 l 90 0 l -3 0 l 285 713 z "},"м":{"ha":907,"x_min":76,"x_max":831,"o":"m 453 96 l 703 713 l 831 713 l 831 0 l 749 0 l 749 553 q 751 617 749 589 l 746 617 l 489 0 l 419 0 l 154 633 q 158 554 158 581 l 158 0 l 76 0 l 76 713 l 207 713 l 453 96 z "},"н":{"ha":704,"x_min":75,"x_max":629,"o":"m 160 0 l 75 0 l 75 713 l 160 713 l 160 408 l 544 408 l 544 713 l 629 713 l 629 0 l 544 0 l 544 332 l 160 332 l 160 0 z "},"о":{"ha":808,"x_min":38,"x_max":771,"o":"m 38 357 q 143 621 38 513 q 404 729 249 729 q 666 621 561 729 q 771 356 771 513 q 666 91 771 199 q 404 -17 561 -17 q 143 92 249 -17 q 38 357 38 201 m 124 356 q 201 147 124 229 q 404 65 279 65 q 610 146 533 65 q 686 356 686 226 q 611 567 686 488 q 404 647 536 647 q 199 567 275 647 q 124 356 124 486 z "},"п":{"ha":692,"x_min":75,"x_max":617,"o":"m 158 0 l 75 0 l 75 713 l 617 713 l 617 0 l 533 0 l 533 632 l 158 632 l 158 0 z "},"р":{"ha":839,"x_min":75,"x_max":801,"o":"m 714 361 q 633 565 714 479 q 433 650 551 650 q 235 560 315 650 q 156 351 156 471 q 238 151 156 240 q 431 63 319 63 q 632 151 550 63 q 714 361 714 240 m 158 714 l 158 578 q 446 731 274 731 q 700 622 599 731 q 801 358 801 513 q 695 91 801 199 q 429 -17 589 -17 q 158 125 268 -17 l 158 -310 l 75 -310 l 75 714 l 158 714 z "},"с":{"ha":753,"x_min":38,"x_max":726,"o":"m 125 356 q 197 147 125 229 q 393 65 268 65 q 542 107 475 65 q 639 222 608 149 l 726 222 q 597 49 689 115 q 393 -17 506 -17 q 140 94 242 -17 q 38 357 38 204 q 140 619 38 510 q 393 729 242 729 q 593 668 506 729 q 721 501 681 607 l 633 501 q 393 647 565 647 q 195 566 265 647 q 125 356 125 485 z "},"т":{"ha":453,"x_min":8,"x_max":446,"o":"m 185 0 l 185 632 l 8 632 l 8 713 l 446 713 l 446 632 l 268 632 l 268 0 l 185 0 z "},"у":{"ha":649,"x_min":1,"x_max":660,"o":"m 569 714 l 660 714 l 253 -310 l 163 -310 l 292 8 l 1 714 l 92 714 l 333 132 l 339 132 l 569 714 z "},"ф":{"ha":1215,"x_min":40,"x_max":1175,"o":"m 567 1071 l 649 1071 l 649 661 q 840 728 736 728 q 1083 614 988 728 q 1175 357 1175 507 q 1083 99 1175 207 q 840 -15 988 -15 q 649 53 736 -15 l 649 -310 l 567 -310 l 567 53 q 375 -15 479 -15 q 132 100 229 -15 q 40 357 40 208 q 132 614 40 506 q 375 728 229 728 q 567 661 479 728 l 567 1071 m 1090 356 q 1029 560 1090 481 q 840 646 963 646 q 649 556 718 646 l 649 157 q 840 67 719 67 q 1028 154 960 67 q 1090 356 1090 233 m 125 356 q 188 154 125 235 q 375 67 257 67 q 567 157 496 67 l 567 556 q 375 646 497 646 q 186 558 254 646 q 125 356 125 479 z "},"х":{"ha":596,"x_min":11,"x_max":585,"o":"m 568 713 l 349 369 l 585 0 l 485 0 l 299 301 l 110 0 l 11 0 l 247 369 l 28 713 l 126 713 l 299 438 l 469 713 l 568 713 z "},"ц":{"ha":688,"x_min":75,"x_max":683,"o":"m 75 713 l 160 713 l 160 79 l 525 79 l 525 713 l 608 713 l 608 79 l 683 79 l 683 -147 l 607 -147 l 607 0 l 75 0 l 75 713 z "},"ч":{"ha":618,"x_min":51,"x_max":540,"o":"m 540 0 l 457 0 l 457 308 q 265 283 379 283 q 107 341 163 283 q 51 501 51 399 l 51 713 l 133 713 l 133 508 q 271 357 133 357 q 457 385 385 357 l 457 713 l 540 713 l 540 0 z "},"ш":{"ha":1001,"x_min":76,"x_max":925,"o":"m 76 713 l 160 713 l 160 76 l 460 76 l 460 713 l 542 713 l 542 76 l 842 76 l 842 713 l 925 713 l 925 0 l 76 0 l 76 713 z "},"щ":{"ha":1004,"x_min":75,"x_max":1000,"o":"m 924 0 l 75 0 l 75 713 l 160 713 l 160 79 l 460 79 l 460 713 l 542 713 l 542 79 l 842 79 l 842 713 l 925 713 l 925 79 l 1000 79 l 1000 -147 l 924 -147 l 924 0 z "},"ъ":{"ha":571,"x_min":0,"x_max":531,"o":"m 0 632 l 0 713 l 179 713 l 179 419 l 307 419 q 469 364 408 419 q 531 208 531 308 q 468 56 531 111 q 307 0 406 0 l 96 0 l 96 632 l 0 632 m 179 342 l 179 78 l 304 78 q 449 208 449 78 q 409 308 449 274 q 304 342 369 342 l 179 342 z "},"ы":{"ha":742,"x_min":76,"x_max":665,"o":"m 76 0 l 76 713 l 161 713 l 161 417 l 304 417 q 453 360 399 417 q 507 208 507 303 q 451 58 507 117 q 303 0 394 0 l 76 0 m 161 340 l 161 81 l 294 81 q 425 208 425 81 q 294 340 425 340 l 161 340 m 579 0 l 579 713 l 665 713 l 665 0 l 579 0 z "},"ь":{"ha":549,"x_min":76,"x_max":513,"o":"m 76 0 l 76 713 l 160 713 l 160 419 l 288 419 q 451 364 389 419 q 513 208 513 308 q 449 56 513 111 q 288 0 386 0 l 76 0 m 160 340 l 160 81 l 283 81 q 429 208 429 81 q 389 307 429 274 q 283 340 349 340 l 160 340 z "},"э":{"ha":753,"x_min":31,"x_max":715,"o":"m 282 329 l 282 406 l 624 406 q 539 582 608 517 q 358 647 469 647 q 217 609 281 647 q 124 501 154 571 l 33 501 q 159 667 71 606 q 358 729 247 729 q 613 619 510 729 q 715 356 715 508 q 613 93 715 203 q 358 -17 510 -17 q 158 49 247 -17 q 31 222 68 115 l 121 222 q 214 107 150 149 q 358 65 278 65 q 549 139 476 65 q 626 329 617 210 l 282 329 z "},"ю":{"ha":1015,"x_min":76,"x_max":975,"o":"m 76 713 l 158 713 l 158 404 l 257 404 q 373 635 275 540 q 606 729 471 729 q 872 628 769 729 q 975 364 975 526 q 878 85 975 188 q 606 -17 781 -17 q 361 86 460 -17 q 257 332 265 185 l 158 332 l 158 0 l 76 0 l 76 713 m 335 354 q 411 150 335 235 q 606 65 488 65 q 817 142 744 65 q 889 357 889 218 q 813 567 889 488 q 606 647 736 647 q 410 561 486 647 q 335 354 335 475 z "},"я":{"ha":563,"x_min":14,"x_max":486,"o":"m 126 503 q 268 376 126 376 l 403 376 l 403 632 l 258 632 q 126 503 126 632 m 486 0 l 403 0 l 403 375 l 108 0 l 14 0 l 267 311 q 107 356 167 311 q 40 503 40 407 q 103 654 40 596 q 258 713 165 713 l 486 713 l 486 0 z "},"ё":{"ha":832,"x_min":47,"x_max":785,"o":"m 690 404 q 408 649 635 649 q 224 582 297 649 q 133 404 150 515 l 690 404 m 663 225 l 760 225 q 418 -17 660 -17 q 156 94 264 -17 q 47 360 47 204 q 153 625 47 522 q 422 728 260 728 q 690 613 592 728 q 785 332 785 503 l 136 332 q 221 140 144 215 q 414 65 297 65 q 562 108 496 65 q 663 225 628 150 m 236 857 l 236 957 l 324 957 l 324 857 l 236 857 m 499 857 l 499 957 l 588 957 l 588 857 l 499 857 z "},"–":{"ha":692,"x_min":-8,"x_max":700,"o":"m 700 407 l 700 336 l -8 336 l -8 407 l 700 407 z "},"—":{"ha":1392,"x_min":-8,"x_max":1400,"o":"m -8 336 l -8 407 l 1400 407 l 1400 336 l -8 336 z "},"‘":{"ha":267,"x_min":33,"x_max":226,"o":"m 135 713 l 33 999 l 124 999 l 226 713 l 135 713 z "},"’":{"ha":265,"x_min":64,"x_max":257,"o":"m 154 713 l 64 713 l 165 999 l 257 999 l 154 713 z "},"‚":{"ha":265,"x_min":18,"x_max":211,"o":"m 108 -108 l 18 -108 l 119 179 l 211 179 l 108 -108 z "},"“":{"ha":467,"x_min":32,"x_max":426,"o":"m 135 713 l 32 999 l 124 999 l 226 713 l 135 713 m 335 713 l 232 999 l 324 999 l 426 713 l 335 713 z "},"”":{"ha":467,"x_min":63,"x_max":457,"o":"m 154 713 l 63 713 l 165 999 l 257 999 l 154 713 m 354 713 l 263 713 l 365 999 l 457 999 l 354 713 z "},"„":{"ha":467,"x_min":18,"x_max":413,"o":"m 110 -108 l 18 -108 l 121 179 l 213 179 l 110 -108 m 310 -108 l 218 -108 l 321 179 l 413 179 l 310 -108 z "},"†":{"ha":692,"x_min":50,"x_max":642,"o":"m 299 -157 l 299 622 l 50 622 l 50 703 l 299 703 l 299 988 l 392 988 l 392 703 l 642 703 l 642 622 l 392 622 l 392 -157 l 299 -157 z "},"•":{"ha":819,"x_min":210,"x_max":608,"o":"m 210 517 q 268 658 210 600 q 410 715 326 715 q 551 658 494 715 q 608 517 608 601 q 549 376 608 435 q 408 317 490 317 q 267 375 325 317 q 210 517 210 433 z "},"…":{"ha":1392,"x_min":185,"x_max":1208,"o":"m 276 3 l 185 3 l 185 178 l 276 178 l 276 3 m 742 3 l 650 3 l 650 178 l 742 178 l 742 3 m 1208 3 l 1117 3 l 1117 178 l 1208 178 l 1208 3 z "},"‰":{"ha":1646,"x_min":36,"x_max":1610,"o":"m 589 222 q 656 392 589 321 q 821 464 722 464 q 986 393 919 464 q 1053 222 1053 322 q 986 52 1053 124 q 821 -19 919 -19 q 656 52 724 -19 q 589 222 589 124 m 668 222 q 713 109 668 160 q 818 58 757 58 q 928 108 882 58 q 975 222 975 158 q 928 337 975 288 q 818 386 882 386 q 712 336 756 386 q 668 222 668 286 m 203 -19 l 807 1007 l 886 1007 l 282 -19 l 203 -19 m 36 765 q 103 936 36 865 q 268 1007 169 1007 q 433 936 367 1007 q 500 765 500 865 q 433 594 500 665 q 268 524 367 524 q 103 595 171 524 q 36 765 36 667 m 114 765 q 157 651 114 700 q 265 601 200 601 q 374 651 328 601 q 419 765 419 701 q 374 880 419 831 q 265 929 329 929 q 157 881 200 929 q 114 765 114 832 m 1146 222 q 1213 392 1146 321 q 1378 464 1279 464 q 1543 393 1476 464 q 1610 222 1610 322 q 1543 52 1610 124 q 1378 -19 1476 -19 q 1213 52 1281 -19 q 1146 222 1146 124 m 1225 222 q 1269 109 1225 160 q 1375 58 1314 58 q 1485 108 1439 58 q 1531 222 1531 158 q 1485 337 1531 288 q 1375 386 1440 386 q 1269 336 1313 386 q 1225 222 1225 286 z "},"‹":{"ha":425,"x_min":79,"x_max":332,"o":"m 244 157 l 79 372 l 244 589 l 332 589 l 164 372 l 332 157 l 244 157 z "},"›":{"ha":425,"x_min":94,"x_max":346,"o":"m 181 157 l 94 157 l 261 372 l 94 589 l 181 589 l 346 372 l 181 157 z "},"№":{"ha":1478,"x_min":97,"x_max":1424,"o":"m 97 0 l 97 1000 l 213 1000 l 767 114 q 763 193 763 197 l 763 1000 l 849 1000 l 849 0 l 733 0 l 179 883 q 185 808 185 831 l 185 0 l 97 0 m 953 415 q 1022 574 953 507 q 1183 642 1090 642 q 1351 578 1279 642 q 1424 418 1424 514 q 1355 255 1424 322 q 1189 188 1286 188 q 1022 253 1092 188 q 953 415 953 318 m 1025 414 q 1072 298 1025 343 q 1189 253 1118 253 q 1305 298 1260 253 q 1350 414 1350 343 q 1303 531 1350 486 q 1183 575 1256 575 q 1070 528 1115 575 q 1025 414 1025 482 m 969 79 l 1399 79 l 1399 0 l 969 0 l 969 79 z "},"™":{"ha":1157,"x_min":108,"x_max":1013,"o":"m 456 999 l 456 957 l 314 957 l 314 569 l 253 569 l 253 957 l 108 957 l 108 999 l 456 999 m 656 999 l 793 647 l 921 999 l 1013 999 l 1013 569 l 960 569 l 960 965 l 811 569 l 774 569 l 617 964 l 617 569 l 564 569 l 564 999 l 656 999 z "},"·":{"ha":389,"x_min":135,"x_max":257,"o":"m 135 436 l 135 558 l 257 558 l 257 436 l 135 436 z "}}}
